<mxfile host="app.diagrams.net" modified="2023-06-07T00:55:51.936Z" agent="Mozilla/5.0 (Windows NT 10.0; Win64; x64) AppleWebKit/537.36 (KHTML, like Gecko) Chrome/114.0.0.0 Safari/537.36" etag="Y9HYINmm6V0TJDPI4fYl" version="21.3.7" type="github">
  <diagram id="C5RBs43oDa-KdzZeNtuy" name="Page-1">
    <mxGraphModel dx="880" dy="452" grid="1" gridSize="10" guides="1" tooltips="1" connect="1" arrows="1" fold="1" page="1" pageScale="1" pageWidth="827" pageHeight="1169" math="0" shadow="0">
      <root>
        <mxCell id="WIyWlLk6GJQsqaUBKTNV-0" />
        <mxCell id="WIyWlLk6GJQsqaUBKTNV-1" parent="WIyWlLk6GJQsqaUBKTNV-0" />
        <mxCell id="Reb8i6HQOB5fukadBDTH-4" value="" style="rounded=0;html=1;jettySize=auto;orthogonalLoop=1;fontSize=11;endArrow=block;endFill=1;endSize=8;strokeWidth=1;shadow=0;labelBackgroundColor=none;edgeStyle=orthogonalEdgeStyle;fillColor=#0050ef;strokeColor=#000000;" edge="1" parent="WIyWlLk6GJQsqaUBKTNV-1" target="Reb8i6HQOB5fukadBDTH-7">
          <mxGeometry relative="1" as="geometry">
            <mxPoint x="365" y="160" as="sourcePoint" />
          </mxGeometry>
        </mxCell>
        <mxCell id="Reb8i6HQOB5fukadBDTH-5" value="Yes" style="rounded=0;html=1;jettySize=auto;orthogonalLoop=1;fontSize=11;endArrow=block;endFill=1;endSize=8;strokeWidth=1;shadow=0;labelBackgroundColor=none;edgeStyle=orthogonalEdgeStyle;fillColor=#0050ef;strokeColor=#000000;" edge="1" parent="WIyWlLk6GJQsqaUBKTNV-1" source="Reb8i6HQOB5fukadBDTH-7" target="Reb8i6HQOB5fukadBDTH-10">
          <mxGeometry y="20" relative="1" as="geometry">
            <mxPoint as="offset" />
          </mxGeometry>
        </mxCell>
        <mxCell id="Reb8i6HQOB5fukadBDTH-6" value="" style="edgeStyle=orthogonalEdgeStyle;rounded=0;html=1;jettySize=auto;orthogonalLoop=1;fontSize=11;endArrow=block;endFill=1;endSize=8;strokeWidth=1;shadow=0;labelBackgroundColor=none;entryX=1;entryY=0.5;entryDx=0;entryDy=0;fillColor=#0050ef;strokeColor=#000000;" edge="1" parent="WIyWlLk6GJQsqaUBKTNV-1" source="Reb8i6HQOB5fukadBDTH-7" target="Reb8i6HQOB5fukadBDTH-13">
          <mxGeometry y="26" relative="1" as="geometry">
            <mxPoint as="offset" />
            <mxPoint x="475" y="130" as="targetPoint" />
            <Array as="points">
              <mxPoint x="476" y="250" />
              <mxPoint x="476" y="130" />
            </Array>
          </mxGeometry>
        </mxCell>
        <mxCell id="Reb8i6HQOB5fukadBDTH-7" value="Input Check" style="rhombus;whiteSpace=wrap;html=1;shadow=0;fontFamily=Helvetica;fontSize=12;align=center;strokeWidth=1;spacing=6;spacingTop=-4;fillColor=#0050ef;fontColor=#ffffff;strokeColor=#FFFF66;" vertex="1" parent="WIyWlLk6GJQsqaUBKTNV-1">
          <mxGeometry x="315" y="210" width="100" height="80" as="geometry" />
        </mxCell>
        <mxCell id="Reb8i6HQOB5fukadBDTH-8" style="edgeStyle=orthogonalEdgeStyle;rounded=0;orthogonalLoop=1;jettySize=auto;html=1;entryX=0.5;entryY=0;entryDx=0;entryDy=0;fillColor=#0050ef;strokeColor=#000000;" edge="1" parent="WIyWlLk6GJQsqaUBKTNV-1" source="Reb8i6HQOB5fukadBDTH-10" target="Reb8i6HQOB5fukadBDTH-12">
          <mxGeometry relative="1" as="geometry" />
        </mxCell>
        <mxCell id="Reb8i6HQOB5fukadBDTH-9" style="edgeStyle=orthogonalEdgeStyle;rounded=0;orthogonalLoop=1;jettySize=auto;html=1;fillColor=#0050ef;strokeColor=#000000;" edge="1" parent="WIyWlLk6GJQsqaUBKTNV-1" source="Reb8i6HQOB5fukadBDTH-10">
          <mxGeometry relative="1" as="geometry">
            <mxPoint x="425" y="120" as="targetPoint" />
            <Array as="points">
              <mxPoint x="506" y="410" />
            </Array>
          </mxGeometry>
        </mxCell>
        <mxCell id="Reb8i6HQOB5fukadBDTH-10" value="Duplicate Check" style="rhombus;whiteSpace=wrap;html=1;shadow=0;fontFamily=Helvetica;fontSize=12;align=center;strokeWidth=1;spacing=6;spacingTop=-4;fillColor=#0050ef;fontColor=#ffffff;strokeColor=#FFFF66;" vertex="1" parent="WIyWlLk6GJQsqaUBKTNV-1">
          <mxGeometry x="285" y="370" width="160" height="80" as="geometry" />
        </mxCell>
        <mxCell id="Reb8i6HQOB5fukadBDTH-11" style="edgeStyle=orthogonalEdgeStyle;rounded=0;orthogonalLoop=1;jettySize=auto;html=1;entryX=0.5;entryY=0;entryDx=0;entryDy=0;fillColor=#0050ef;strokeColor=#000000;" edge="1" parent="WIyWlLk6GJQsqaUBKTNV-1" source="Reb8i6HQOB5fukadBDTH-12" target="Reb8i6HQOB5fukadBDTH-18">
          <mxGeometry relative="1" as="geometry" />
        </mxCell>
        <mxCell id="Reb8i6HQOB5fukadBDTH-12" value="Email to be sent to user &lt;br&gt;with verification link" style="rounded=1;whiteSpace=wrap;html=1;fontSize=12;glass=0;strokeWidth=1;shadow=0;fillColor=#0050ef;fontColor=#ffffff;strokeColor=#FFFF66;" vertex="1" parent="WIyWlLk6GJQsqaUBKTNV-1">
          <mxGeometry x="270" y="555" width="190" height="140" as="geometry" />
        </mxCell>
        <mxCell id="Reb8i6HQOB5fukadBDTH-13" value="Input user info" style="shape=parallelogram;perimeter=parallelogramPerimeter;whiteSpace=wrap;html=1;fixedSize=1;fillColor=#0050ef;fontColor=#ffffff;strokeColor=#FFFF66;" vertex="1" parent="WIyWlLk6GJQsqaUBKTNV-1">
          <mxGeometry x="305" y="100" width="120" height="60" as="geometry" />
        </mxCell>
        <mxCell id="Reb8i6HQOB5fukadBDTH-14" value="Yes" style="text;html=1;align=center;verticalAlign=middle;resizable=0;points=[];autosize=1;strokeColor=#FFFF66;fillColor=#0050ef;fontColor=#ffffff;" vertex="1" parent="WIyWlLk6GJQsqaUBKTNV-1">
          <mxGeometry x="374" y="310" width="40" height="30" as="geometry" />
        </mxCell>
        <mxCell id="Reb8i6HQOB5fukadBDTH-15" value="No&lt;br&gt;" style="text;html=1;align=center;verticalAlign=middle;resizable=0;points=[];autosize=1;strokeColor=#FFFF66;fillColor=#0050ef;fontColor=#ffffff;" vertex="1" parent="WIyWlLk6GJQsqaUBKTNV-1">
          <mxGeometry x="455" y="420" width="40" height="30" as="geometry" />
        </mxCell>
        <mxCell id="Reb8i6HQOB5fukadBDTH-16" style="edgeStyle=orthogonalEdgeStyle;rounded=0;orthogonalLoop=1;jettySize=auto;html=1;fillColor=#0050ef;strokeColor=#000000;" edge="1" parent="WIyWlLk6GJQsqaUBKTNV-1" source="Reb8i6HQOB5fukadBDTH-18">
          <mxGeometry relative="1" as="geometry">
            <mxPoint x="365" y="870" as="targetPoint" />
          </mxGeometry>
        </mxCell>
        <mxCell id="Reb8i6HQOB5fukadBDTH-17" style="edgeStyle=orthogonalEdgeStyle;rounded=0;orthogonalLoop=1;jettySize=auto;html=1;entryX=0;entryY=0.25;entryDx=0;entryDy=0;" edge="1" parent="WIyWlLk6GJQsqaUBKTNV-1" source="Reb8i6HQOB5fukadBDTH-18" target="Reb8i6HQOB5fukadBDTH-13">
          <mxGeometry relative="1" as="geometry">
            <mxPoint x="150" y="130" as="targetPoint" />
            <Array as="points">
              <mxPoint x="151" y="780" />
              <mxPoint x="151" y="119" />
            </Array>
          </mxGeometry>
        </mxCell>
        <mxCell id="Reb8i6HQOB5fukadBDTH-18" value="verification check" style="rhombus;whiteSpace=wrap;html=1;fillColor=#0050ef;fontColor=#ffffff;strokeColor=#FFFF66;" vertex="1" parent="WIyWlLk6GJQsqaUBKTNV-1">
          <mxGeometry x="287.5" y="740" width="155" height="100" as="geometry" />
        </mxCell>
        <mxCell id="Reb8i6HQOB5fukadBDTH-19" value="New User Created" style="rounded=1;whiteSpace=wrap;html=1;fillColor=#0050ef;fontColor=#ffffff;strokeColor=#FFFF66;" vertex="1" parent="WIyWlLk6GJQsqaUBKTNV-1">
          <mxGeometry x="305" y="870" width="120" height="60" as="geometry" />
        </mxCell>
        <mxCell id="Reb8i6HQOB5fukadBDTH-20" value="NO" style="text;html=1;align=center;verticalAlign=middle;resizable=0;points=[];autosize=1;strokeColor=none;fillColor=none;" vertex="1" parent="WIyWlLk6GJQsqaUBKTNV-1">
          <mxGeometry x="190" y="740" width="40" height="30" as="geometry" />
        </mxCell>
        <mxCell id="Reb8i6HQOB5fukadBDTH-21" value="Yes" style="text;html=1;align=center;verticalAlign=middle;resizable=0;points=[];autosize=1;strokeColor=#FFFF66;fillColor=#0050ef;fontColor=#ffffff;" vertex="1" parent="WIyWlLk6GJQsqaUBKTNV-1">
          <mxGeometry x="385" y="480" width="40" height="30" as="geometry" />
        </mxCell>
        <mxCell id="Reb8i6HQOB5fukadBDTH-22" value="No&lt;br&gt;" style="text;html=1;align=center;verticalAlign=middle;resizable=0;points=[];autosize=1;strokeColor=#FFFF66;fillColor=#0050ef;fontColor=#ffffff;" vertex="1" parent="WIyWlLk6GJQsqaUBKTNV-1">
          <mxGeometry x="425" y="170" width="40" height="30" as="geometry" />
        </mxCell>
        <mxCell id="Reb8i6HQOB5fukadBDTH-23" value="No&lt;br&gt;" style="text;html=1;align=center;verticalAlign=middle;resizable=0;points=[];autosize=1;strokeColor=#FFFF66;fillColor=#0050ef;fontColor=#ffffff;" vertex="1" parent="WIyWlLk6GJQsqaUBKTNV-1">
          <mxGeometry x="190" y="740" width="40" height="30" as="geometry" />
        </mxCell>
        <mxCell id="Reb8i6HQOB5fukadBDTH-24" value="Yes" style="text;html=1;align=center;verticalAlign=middle;resizable=0;points=[];autosize=1;strokeColor=#FFFF66;fillColor=#0050ef;fontColor=#ffffff;" vertex="1" parent="WIyWlLk6GJQsqaUBKTNV-1">
          <mxGeometry x="385" y="830" width="40" height="30" as="geometry" />
        </mxCell>
      </root>
    </mxGraphModel>
  </diagram>
</mxfile>
